<?xml version="1.0" encoding="UTF-8"?>
<svg xmlns="http://www.w3.org/2000/svg" xmlns:xlink="http://www.w3.org/1999/xlink" viewBox="0 0 1920 1080">
  <defs>
    <style>
      .cls-1 {
        fill: url(#radial-gradient-3);
      }

      .cls-1, .cls-2, .cls-3 {
        mix-blend-mode: overlay;
      }

      .cls-2 {
        fill: url(#radial-gradient-2);
      }

      .cls-3 {
        fill: url(#radial-gradient-4);
      }

      .cls-4 {
        fill: url(#radial-gradient);
      }

      .cls-5 {
        isolation: isolate;
      }

      .cls-6 {
        opacity: .4;
      }
    </style>
    <radialGradient id="radial-gradient" cx="1114.63" cy="1464.06" fx="1114.63" fy="1464.06" r="2225.43" gradientTransform="translate(1118.5 -327.43) rotate(90) scale(.74 1)" gradientUnits="userSpaceOnUse">
      <stop offset="0" stop-color="#636363"/>
      <stop offset=".32" stop-color="#666"/>
      <stop offset=".59" stop-color="#707070"/>
      <stop offset=".84" stop-color="#828282"/>
      <stop offset="1" stop-color="#919191"/>
    </radialGradient>
    <radialGradient id="radial-gradient-2" cx="1667.99" cy="-357.31" fx="1667.99" fy="-357.31" r="1555.07" gradientTransform="translate(1118.5 -327.43) rotate(90) scale(.74 1)" gradientUnits="userSpaceOnUse">
      <stop offset="0" stop-color="#fff"/>
      <stop offset=".17" stop-color="#bcbcbc"/>
      <stop offset=".33" stop-color="#838383"/>
      <stop offset=".49" stop-color="#545454"/>
      <stop offset=".64" stop-color="#2f2f2f"/>
      <stop offset=".78" stop-color="#151515"/>
      <stop offset=".9" stop-color="#050505"/>
      <stop offset="1" stop-color="#000"/>
    </radialGradient>
    <radialGradient id="radial-gradient-3" cx="832.63" cy="-447.76" fx="832.63" fy="-447.76" r="2980.12" gradientTransform="translate(1118.5 -327.43) rotate(90) scale(.74 1)" gradientUnits="userSpaceOnUse">
      <stop offset="0" stop-color="#fff"/>
      <stop offset="0" stop-color="#fafafa"/>
      <stop offset=".09" stop-color="#c6c6c6"/>
      <stop offset=".17" stop-color="#979797"/>
      <stop offset=".26" stop-color="#6e6e6e"/>
      <stop offset=".35" stop-color="#4c4c4c"/>
      <stop offset=".45" stop-color="#303030"/>
      <stop offset=".55" stop-color="#1a1a1a"/>
      <stop offset=".67" stop-color="#0b0b0b"/>
      <stop offset=".8" stop-color="#020202"/>
      <stop offset="1" stop-color="#000"/>
    </radialGradient>
    <radialGradient id="radial-gradient-4" cx="1313.27" cy="-307.65" fx="1313.27" fy="-307.65" r="3441.78" xlink:href="#radial-gradient-2"/>
  </defs>
  <g class="cls-5">
    <g id="Layer_1" data-name="Layer 1">
      <g class="cls-6">
        <rect class="cls-4" x="-254.36" width="2174.36" height="1080"/>
        <path class="cls-2" d="M1531.04,1080H507.74c174.64-51.5,336.72-122.74,470.01-220.28,192.12,95.55,393.67,169.14,553.29,220.28Z"/>
        <path class="cls-1" d="M507.74,1080h-127.72s300.5-68.37,504.31-268.99c142.11-139.84,237.23-343.96,150.83-633.99-18.17-61.02-42.24-119.96-70.61-177.02h337.82c34.36,123.58,37.98,259.8-3.94,410.99-52.88,190.66-167.87,336.96-320.69,448.73-133.29,97.54-295.37,168.78-470.01,220.28Z"/>
        <path class="cls-3" d="M380.03,1080H-254.36V0H964.56c28.38,57.06,52.44,116,70.61,177.02,86.39,290.03-8.72,494.14-150.83,633.99-203.81,200.63-504.31,268.99-504.31,268.99Z"/>
      </g>
    </g>
  </g>
</svg>