<?xml version="1.0" encoding="UTF-8"?>
<svg id="_レイヤー_1" data-name="レイヤー 1" xmlns="http://www.w3.org/2000/svg" viewBox="0 0 200 100">
  <defs>
    <style>
      .cls-1 {
        fill: #c1272d;
      }
    </style>
  </defs>
  <g>
    <path class="cls-1" d="M41.21,94.37c-3,1.56-5.93,2.81-8.78,3.74-2.85.93-5.64,1.39-8.39,1.39s-5.59-.66-8.54-1.98c-2.95-1.33-5.57-3.09-7.86-5.31-5.1-4.94-7.65-10.43-7.65-16.48,0-5.57,1.66-11.23,4.98-16.96,3.04-5.18,6.92-9.53,11.62-13.05,4.7-3.52,9.07-5.28,13.1-5.28,5.77,0,8.85,1.62,9.25,4.86.12.99.18,2.13.18,3.44s-.3,2.8-.92,4.48-1.4,3.36-2.37,5.04c-.97,1.68-2.04,3.32-3.2,4.92-1.17,1.6-2.28,3.05-3.35,4.36-2.06,2.49-3.7,4.29-4.92,5.39,0,1.34,1.01,2.73,3.03,4.15,1.9,1.34,3.51,2.02,4.83,2.02s2.88-.32,4.68-.95c1.8-.63,3.65-1.48,5.57-2.55,1.92-1.07,3.87-2.29,5.87-3.68,2-1.39,3.96-2.81,5.9-4.27l10.85-8.48c4.31-3.12,7.81-4.68,10.5-4.68,1.07,0,1.89.38,2.46,1.15.57.77.86,1.67.86,2.7s-.51,2.44-1.54,4.24c-1.03,1.8-2.44,3.79-4.24,5.96-1.8,2.17-3.9,4.45-6.31,6.82s-5.02,4.7-7.83,7c-2.81,2.29-5.72,4.48-8.75,6.55-3.02,2.08-6.04,3.89-9.04,5.46ZM56.15,29.09c-1.15.97-2.39,1.76-3.73,2.37-1.35.62-2.85.92-4.51.92s-3.26-.28-4.8-.83c-1.54-.55-2.89-1.32-4.03-2.31-2.49-2.13-3.74-4.86-3.74-8.18,0-5.1,4.27-8.89,12.81-11.38,2.88-.87,5.26-1.3,7.11-1.3s3.25.21,4.18.62c.93.42,1.69.96,2.28,1.63,1.19,1.34,1.78,2.72,1.78,4.12s-.17,2.68-.5,3.83c-.34,1.15-.82,2.33-1.45,3.56-.63,1.23-1.4,2.45-2.31,3.68-.91,1.23-1.94,2.32-3.08,3.29Z"/>
    <path class="cls-1" d="M101.75,94.37c-3,1.56-5.93,2.81-8.78,3.74-2.85.93-5.64,1.39-8.39,1.39s-5.59-.66-8.54-1.98c-2.95-1.33-5.57-3.09-7.86-5.31-5.1-4.94-7.65-10.43-7.65-16.48,0-5.57,1.66-11.23,4.98-16.96,3.04-5.18,6.92-9.53,11.62-13.05,4.7-3.52,9.07-5.28,13.1-5.28,5.77,0,8.85,1.62,9.25,4.86.12.99.18,2.13.18,3.44s-.3,2.8-.92,4.48c-.61,1.68-1.4,3.36-2.37,5.04-.97,1.68-2.04,3.32-3.2,4.92-1.17,1.6-2.28,3.05-3.35,4.36-2.06,2.49-3.7,4.29-4.92,5.39,0,1.34,1.01,2.73,3.03,4.15,1.9,1.34,3.51,2.02,4.83,2.02s2.88-.32,4.68-.95c1.8-.63,3.65-1.48,5.57-2.55,1.92-1.07,3.87-2.29,5.87-3.68,2-1.39,3.96-2.81,5.9-4.27l10.85-8.48c4.31-3.12,7.81-4.68,10.5-4.68,1.07,0,1.89.38,2.46,1.15.57.77.86,1.67.86,2.7s-.51,2.44-1.54,4.24c-1.03,1.8-2.44,3.79-4.24,5.96-1.8,2.17-3.9,4.45-6.31,6.82-2.41,2.37-5.02,4.7-7.83,7-2.81,2.29-5.72,4.48-8.75,6.55-3.02,2.08-6.04,3.89-9.04,5.46ZM116.69,29.09c-1.15.97-2.39,1.76-3.73,2.37-1.35.62-2.85.92-4.51.92s-3.26-.28-4.8-.83c-1.54-.55-2.89-1.32-4.03-2.31-2.49-2.13-3.74-4.86-3.74-8.18,0-5.1,4.27-8.89,12.81-11.38,2.88-.87,5.26-1.3,7.11-1.3s3.25.21,4.18.62c.93.42,1.69.96,2.28,1.63,1.19,1.34,1.78,2.72,1.78,4.12s-.17,2.68-.5,3.83c-.34,1.15-.82,2.33-1.45,3.56-.63,1.23-1.4,2.45-2.31,3.68s-1.94,2.32-3.08,3.29Z"/>
    <path class="cls-1" d="M150.37,67.54c-2.06,2.49-3.7,4.29-4.92,5.39,0,1.34,1.01,2.73,3.03,4.15,1.9,1.34,3.51,2.02,4.83,2.02s2.88-.32,4.68-.95c1.8-.63,3.65-1.48,5.57-2.55,1.92-1.07,3.87-2.29,5.87-3.68,2-1.39,3.96-2.81,5.9-4.27l10.85-8.48c4.31-3.12,7.81-4.68,10.5-4.68,1.07,0,1.89.38,2.46,1.15.57.77.86,1.67.86,2.7s-.51,2.44-1.54,4.24c-1.03,1.8-2.44,3.79-4.24,5.96-1.8,2.17-3.9,4.45-6.31,6.82s-5.02,4.7-7.83,7c-2.81,2.29-5.72,4.48-8.75,6.55-3.02,2.08-6.04,3.89-9.04,5.46-3,1.56-5.93,2.81-8.78,3.74-2.85.93-5.64,1.39-8.39,1.39s-5.59-.66-8.54-1.98c-2.95-1.33-5.57-3.09-7.86-5.31-5.1-4.94-7.65-10.43-7.65-16.48,0-5.57,1.66-11.23,4.98-16.96,3.04-5.18,6.92-9.53,11.62-13.05,4.7-3.52,9.07-5.28,13.1-5.28,5.77,0,8.85,1.62,9.25,4.86.12.99.18,2.13.18,3.44s-.3,2.8-.92,4.48c-.61,1.68-1.4,3.36-2.37,5.04-.97,1.68-2.04,3.32-3.2,4.92-1.17,1.6-2.28,3.05-3.35,4.36"/>
  </g>
  <path class="cls-1" d="M168.66,37.4c-1.29,0-2.59-.38-3.73-1.17l-18.91-13.17c-1.88-1.31-2.93-3.5-2.79-5.78.14-2.28,1.47-4.32,3.5-5.38l20.38-10.66c3.2-1.67,7.15-.44,8.82,2.76,1.67,3.2.44,7.15-2.76,8.82l-10.82,5.66,10.06,7c2.96,2.06,3.69,6.14,1.63,9.1-1.27,1.83-3.3,2.8-5.37,2.8Z"/>
</svg>